<svg width="1122" viewBox="0 0 841.92 595.5" height="793" version="1" xmlns="http://www.w3.org/2000/svg"><defs><clipPath id="a"><path d="M644.969 357.922h60.672v88.387h-60.672zm0 0"/></clipPath><clipPath id="b"><path d="M644.969 455.813h60.672v88.386h-60.672zm0 0"/></clipPath><clipPath id="c"><path d="M327 472h60v87.93h-60zm0 0"/></clipPath><clipPath id="d"><path d="M326.61 471.543h60.671v88.387H326.61zm0 0"/></clipPath><clipPath id="e"><path d="M404 472h60v87.93h-60zm0 0"/></clipPath><clipPath id="f"><path d="M403.355 471.543H464v88.387h-60.645zm0 0"/></clipPath><clipPath id="g"><path d="M480.262 472h60.672v87.93h-60.672zm0 0"/></clipPath><clipPath id="h"><path d="M480.262 471.543h60.672v88.387h-60.672zm0 0"/></clipPath><clipPath id="i"><path d="M553 472h60v87.93h-60zm0 0"/></clipPath><clipPath id="j"><path d="M552.809 471.543h60.668v88.387h-60.668zm0 0"/></clipPath><clipPath id="k"><path d="M250 472h60v87.93h-60zm0 0"/></clipPath><clipPath id="l"><path d="M249.703 471.543h60.672v88.387h-60.672zm0 0"/></clipPath><clipPath id="m"><path d="M156.816 313.629h60.672v88.383h-60.672zm0 0"/></clipPath><clipPath id="n"><path d="M157 402.219h60V490h-60zm0 0"/></clipPath><clipPath id="o"><path d="M156.816 402.219h60.672v88.386h-60.672zm0 0"/></clipPath><clipPath id="p"><path d="M156.816 476.742h60.672v88.387h-60.672zm0 0"/></clipPath><clipPath id="q"><path d="M169 297.25h60V385h-60zm0 0"/></clipPath><clipPath id="r"><path d="M168.8 297.25h60.673v88.387H168.8zm0 0"/></clipPath><clipPath id="s"><path d="M168.8 385.844h60.673v88.386H168.8zm0 0"/></clipPath><clipPath id="t"><path d="M169 461h60v87.754h-60zm0 0"/></clipPath><clipPath id="u"><path d="M168.8 460.367h60.673v88.387H168.8zm0 0"/></clipPath><clipPath id="v"><path d="M404 367.219h60v88.386h-60zm0 0"/></clipPath><clipPath id="w"><path d="M403.355 367.219H464v88.386h-60.645zm0 0"/></clipPath><clipPath id="x"><path d="M157 145h60v87.992h-60zm0 0"/></clipPath><clipPath id="y"><path d="M156.57 144.605h60.672v88.387H156.57zm0 0"/></clipPath><clipPath id="z"><path d="M156.57 46.719h60.672v88.383H156.57zm0 0"/></clipPath><clipPath id="A"><path d="M475 30.984h60.602v88.387H475zm0 0"/></clipPath><clipPath id="B"><path d="M399 31h59.855v88H399zm0 0"/></clipPath><clipPath id="C"><path d="M398.184 30.984h60.671v88.387h-60.671zm0 0"/></clipPath><clipPath id="D"><path d="M322 31h59.95v88H322zm0 0"/></clipPath><clipPath id="E"><path d="M321.277 30.984h60.672v88.387h-60.672zm0 0"/></clipPath><clipPath id="F"><path d="M248.734 30.984h60.668v88.387h-60.668zm0 0"/></clipPath><clipPath id="G"><path d="M552 30.984h60.508v88.387H552zm0 0"/></clipPath><clipPath id="H"><path d="M645 100.313h60v88.382h-60zm0 0"/></clipPath><clipPath id="I"><path d="M644.723 100.313h60.672v88.382h-60.672zm0 0"/></clipPath><clipPath id="J"><path d="M644.723 25.785h60.672v88.387h-60.672zm0 0"/></clipPath><clipPath id="K"><path d="M644.723 188.902h60.672v88.387h-60.672zm0 0"/></clipPath><clipPath id="L"><path d="M633 205.281h60V293h-60zm0 0"/></clipPath><clipPath id="M"><path d="M632.738 205.281h60.672v88.383h-60.672zm0 0"/></clipPath><clipPath id="N"><path d="M632.738 116.688h60.672v88.382h-60.672zm0 0"/></clipPath><clipPath id="O"><path d="M633 42.164h60V130h-60zm0 0"/></clipPath><clipPath id="P"><path d="M632.738 42.164h60.672v88.383h-60.672zm0 0"/></clipPath><clipPath id="Q"><path d="M399 135.313h59.855v88.382H399zm0 0"/></clipPath><clipPath id="R"><path d="M398.184 135.313h60.671v88.382h-60.671zm0 0"/></clipPath><clipPath id="S"><path d="M381.05 297h100.368v48.914H381.051zm0 0"/></clipPath><clipPath id="T"><path d="M381.05 245h100.368v50H381.051zm0 0"/></clipPath><clipPath id="U"><path d="M404 367.219h60v88.386h-60zm0 0"/></clipPath><clipPath id="V"><path d="M403.355 367.219H464v88.386h-60.645zm0 0"/></clipPath><clipPath id="W"><path d="M399 135.313h59.855v88.382H399zm0 0"/></clipPath><clipPath id="X"><path d="M398.184 135.313h60.671v88.382h-60.671zm0 0"/></clipPath></defs><path fill="#d92c33" d="M698.371 445.637h-46.133c-3.652 0-6.613-2.942-6.613-6.57v-73.903c0-3.629 2.96-6.57 6.613-6.57h46.133c3.652 0 6.61 2.941 6.61 6.57v73.902c0 3.63-2.958 6.57-6.61 6.57zm0 0"/><g clip-path="url(#a)"><path fill="#4d1012" d="M698.371 446.293h-46.133c-4.008 0-7.27-3.242-7.27-7.227v-73.902c0-3.984 3.262-7.223 7.27-7.223h46.133c4.008 0 7.27 3.239 7.27 7.223v73.902c0 3.985-3.262 7.227-7.27 7.227zm-46.133-87.043c-3.281 0-5.953 2.652-5.953 5.914v73.902c0 3.266 2.672 5.918 5.953 5.918h46.133c3.281 0 5.953-2.652 5.953-5.918v-73.902c0-3.262-2.672-5.914-5.953-5.914zm0 0"/></g><path fill="#fff" d="M651.555 386.434a1.389 1.389 0 0 1-1.395-1.387v-8.727c0-.765.621-1.382 1.395-1.382.77 0 1.39.617 1.39 1.382v8.727c0 .765-.62 1.387-1.39 1.387zm0 0"/><path fill="#4d1012" d="M651.555 386.957a1.916 1.916 0 0 1-1.922-1.91v-8.727c0-1.05.86-1.906 1.922-1.906 1.058 0 1.918.856 1.918 1.906v8.727c0 1.055-.86 1.91-1.918 1.91zm0-11.496a.867.867 0 0 0-.871.86v8.726c0 .476.39.863.87.863a.867.867 0 0 0 .868-.863v-8.727c0-.472-.39-.86-.867-.86zm0 0"/><path fill="#fff" d="M651.555 371.613a1.389 1.389 0 0 1-1.395-1.386v-2.977c0-.766.621-1.387 1.395-1.387.77 0 1.39.621 1.39 1.387v2.977c0 .765-.62 1.386-1.39 1.386zm0 0"/><path fill="#4d1012" d="M651.555 372.137a1.918 1.918 0 0 1-1.922-1.91v-2.977c0-1.055.86-1.91 1.922-1.91 1.058 0 1.918.855 1.918 1.91v2.977c0 1.05-.86 1.91-1.918 1.91zm0-5.75a.868.868 0 0 0-.871.863v2.977c0 .476.39.863.87.863a.867.867 0 0 0 .868-.863v-2.977a.867.867 0 0 0-.867-.863zm0 0"/><path fill="#d92c33" d="M698.371 543.527h-46.133c-3.652 0-6.613-2.941-6.613-6.57v-73.902c0-3.63 2.96-6.57 6.613-6.57h46.133c3.652 0 6.61 2.94 6.61 6.57v73.902c0 3.629-2.958 6.57-6.61 6.57zm0 0"/><g clip-path="url(#b)"><path fill="#4d1012" d="M698.371 544.184h-46.133c-4.008 0-7.27-3.243-7.27-7.227v-73.902c0-3.985 3.262-7.227 7.27-7.227h46.133c4.008 0 7.27 3.242 7.27 7.227v73.902c0 3.984-3.262 7.227-7.27 7.227zm-46.133-87.047c-3.281 0-5.953 2.656-5.953 5.918v73.902c0 3.262 2.672 5.918 5.953 5.918h46.133c3.281 0 5.953-2.656 5.953-5.918v-73.902c0-3.262-2.672-5.918-5.953-5.918zm0 0"/></g><path fill="#fff" d="M651.555 484.324a1.389 1.389 0 0 1-1.395-1.387v-8.726c0-.766.621-1.383 1.395-1.383.77 0 1.39.617 1.39 1.383v8.726c0 .766-.62 1.387-1.39 1.387zm0 0"/><path fill="#4d1012" d="M651.555 484.848a1.916 1.916 0 0 1-1.922-1.91v-8.727c0-1.05.86-1.906 1.922-1.906 1.058 0 1.918.855 1.918 1.906v8.726c0 1.055-.86 1.91-1.918 1.91zm0-11.496a.867.867 0 0 0-.871.859v8.726c0 .477.39.864.87.864a.867.867 0 0 0 .868-.863v-8.727c0-.473-.39-.86-.867-.86zm0 0"/><path fill="#fff" d="M651.555 469.504a1.389 1.389 0 0 1-1.395-1.387v-2.976c0-.766.621-1.387 1.395-1.387.77 0 1.39.621 1.39 1.387v2.976c0 .766-.62 1.387-1.39 1.387zm0 0"/><path fill="#4d1012" d="M651.555 470.027a1.918 1.918 0 0 1-1.922-1.91v-2.976c0-1.055.86-1.91 1.922-1.91 1.058 0 1.918.855 1.918 1.91v2.976c0 1.051-.86 1.91-1.918 1.91zm0-5.75a.868.868 0 0 0-.871.864v2.976c0 .477.39.863.87.863a.867.867 0 0 0 .868-.863v-2.976a.867.867 0 0 0-.867-.864zm0 0"/><g clip-path="url(#c)"><path fill="#ff1c1c" d="M379.797 559.457h-45.945a6.587 6.587 0 0 1-6.586-6.586v-74.07a6.587 6.587 0 0 1 6.586-6.586h45.945a6.583 6.583 0 0 1 6.582 6.586v74.07a6.583 6.583 0 0 1-6.582 6.586zm0 0"/></g><g clip-path="url(#d)"><path fill="#4d1012" d="M379.797 560.113h-45.945c-3.993 0-7.243-3.25-7.243-7.242v-74.07c0-3.992 3.25-7.238 7.243-7.238h45.945a7.245 7.245 0 0 1 7.238 7.238v74.07c0 3.992-3.246 7.242-7.238 7.242zm-45.945-87.242c-3.27 0-5.93 2.66-5.93 5.93v74.07c0 3.27 2.66 5.93 5.93 5.93h45.945c3.27 0 5.93-2.66 5.93-5.93v-74.07c0-3.27-2.66-5.93-5.93-5.93zm0 0"/></g><path fill="#fff" d="M333.168 500.117a1.387 1.387 0 0 1-1.387-1.387v-8.746a1.387 1.387 0 0 1 2.774 0v8.746c0 .766-.621 1.387-1.387 1.387zm0 0"/><path fill="#4d1012" d="M333.168 500.645a1.917 1.917 0 0 1-1.914-1.915v-8.746c0-1.054.86-1.914 1.914-1.914 1.055 0 1.914.86 1.914 1.914v8.746c0 1.055-.86 1.915-1.914 1.915zm0-11.524a.864.864 0 0 0-.863.863v8.746a.864.864 0 0 0 1.726 0v-8.746a.864.864 0 0 0-.863-.863zm0 0"/><path fill="#fff" d="M333.168 485.266a1.39 1.39 0 0 1-1.387-1.391v-2.984a1.387 1.387 0 0 1 2.774 0v2.984a1.39 1.39 0 0 1-1.387 1.39zm0 0"/><path fill="#4d1012" d="M333.168 485.79a1.917 1.917 0 0 1-1.914-1.915v-2.984c0-1.055.86-1.914 1.914-1.914 1.055 0 1.914.859 1.914 1.914v2.984c0 1.055-.86 1.914-1.914 1.914zm0-5.763a.864.864 0 0 0-.863.864v2.984a.864.864 0 0 0 1.726 0v-2.984a.864.864 0 0 0-.863-.864zm0 0"/><g clip-path="url(#e)"><path fill="#ff1c1c" d="M456.54 559.457h-45.946a6.587 6.587 0 0 1-6.586-6.586v-74.07a6.587 6.587 0 0 1 6.586-6.586h45.945a6.587 6.587 0 0 1 6.586 6.586v74.07a6.587 6.587 0 0 1-6.586 6.586zm0 0"/></g><g clip-path="url(#f)"><path fill="#4d1012" d="M456.54 560.113h-45.946c-3.992 0-7.239-3.25-7.239-7.242v-74.07a7.245 7.245 0 0 1 7.239-7.238h45.945c3.992 0 7.242 3.246 7.242 7.238v74.07c0 3.992-3.25 7.242-7.242 7.242zm-45.946-87.242c-3.27 0-5.93 2.66-5.93 5.93v74.07c0 3.27 2.66 5.93 5.93 5.93h45.945c3.27 0 5.93-2.66 5.93-5.93v-74.07c0-3.27-2.66-5.93-5.93-5.93zm0 0"/></g><path fill="#fff" d="M409.914 500.117c-.77 0-1.39-.62-1.39-1.387v-8.746a1.388 1.388 0 0 1 2.777 0v8.746c0 .766-.621 1.387-1.387 1.387zm0 0"/><path fill="#4d1012" d="M409.914 500.645A1.917 1.917 0 0 1 408 498.73v-8.746c0-1.054.86-1.914 1.914-1.914 1.055 0 1.91.86 1.91 1.914v8.746a1.914 1.914 0 0 1-1.91 1.915zm0-11.524a.867.867 0 0 0-.867.863v8.746a.866.866 0 0 0 1.73 0v-8.746a.866.866 0 0 0-.863-.863zm0 0"/><path fill="#fff" d="M409.914 485.266c-.77 0-1.39-.625-1.39-1.391v-2.984a1.388 1.388 0 0 1 2.777 0v2.984a1.39 1.39 0 0 1-1.387 1.39zm0 0"/><path fill="#4d1012" d="M409.914 485.79a1.917 1.917 0 0 1-1.914-1.915v-2.984c0-1.055.86-1.914 1.914-1.914 1.055 0 1.91.859 1.91 1.914v2.984a1.914 1.914 0 0 1-1.91 1.914zm0-5.763a.867.867 0 0 0-.867.864v2.984a.866.866 0 0 0 1.73 0v-2.984a.866.866 0 0 0-.863-.864zm0 0"/><g clip-path="url(#g)"><path fill="#ff1c1c" d="M533.445 559.457H487.5a6.583 6.583 0 0 1-6.582-6.586v-74.07a6.583 6.583 0 0 1 6.582-6.586h45.945a6.587 6.587 0 0 1 6.586 6.586v74.07a6.587 6.587 0 0 1-6.586 6.586zm0 0"/></g><g clip-path="url(#h)"><path fill="#4d1012" d="M533.445 560.113H487.5c-3.992 0-7.238-3.25-7.238-7.242v-74.07a7.245 7.245 0 0 1 7.238-7.238h45.945c3.992 0 7.242 3.246 7.242 7.238v74.07c0 3.992-3.25 7.242-7.242 7.242zM487.5 472.871c-3.27 0-5.93 2.66-5.93 5.93v74.07c0 3.27 2.66 5.93 5.93 5.93h45.945c3.27 0 5.93-2.66 5.93-5.93v-74.07c0-3.27-2.66-5.93-5.93-5.93zm0 0"/></g><path fill="#fff" d="M486.82 500.117c-.77 0-1.39-.62-1.39-1.387v-8.746a1.388 1.388 0 0 1 2.777 0v8.746c0 .766-.621 1.387-1.387 1.387zm0 0"/><path fill="#4d1012" d="M486.82 500.645a1.917 1.917 0 0 1-1.914-1.915v-8.746c0-1.054.86-1.914 1.914-1.914 1.055 0 1.91.86 1.91 1.914v8.746a1.914 1.914 0 0 1-1.91 1.915zm0-11.524a.864.864 0 0 0-.863.863v8.746a.864.864 0 0 0 1.727 0v-8.746a.864.864 0 0 0-.864-.863zm0 0"/><path fill="#fff" d="M486.82 485.266c-.77 0-1.39-.625-1.39-1.391v-2.984a1.388 1.388 0 0 1 2.777 0v2.984a1.39 1.39 0 0 1-1.387 1.39zm0 0"/><path fill="#4d1012" d="M486.82 485.79a1.917 1.917 0 0 1-1.914-1.915v-2.984c0-1.055.86-1.914 1.914-1.914 1.055 0 1.91.859 1.91 1.914v2.984a1.914 1.914 0 0 1-1.91 1.914zm0-5.763a.864.864 0 0 0-.863.864v2.984a.864.864 0 0 0 1.727 0v-2.984a.864.864 0 0 0-.864-.864zm0 0"/><g clip-path="url(#i)"><path fill="#ff1c1c" d="M605.992 559.457h-45.945a6.587 6.587 0 0 1-6.586-6.586v-74.07a6.587 6.587 0 0 1 6.586-6.586h45.945a6.587 6.587 0 0 1 6.586 6.586v74.07a6.587 6.587 0 0 1-6.586 6.586zm0 0"/></g><g clip-path="url(#j)"><path fill="#4d1012" d="M605.992 560.113h-45.945c-3.992 0-7.242-3.25-7.242-7.242v-74.07c0-3.992 3.25-7.238 7.242-7.238h45.945c3.992 0 7.242 3.246 7.242 7.238v74.07c0 3.992-3.25 7.242-7.242 7.242zm-45.945-87.242c-3.27 0-5.93 2.66-5.93 5.93v74.07c0 3.27 2.66 5.93 5.93 5.93h45.945c3.27 0 5.93-2.66 5.93-5.93v-74.07c0-3.27-2.66-5.93-5.93-5.93zm0 0"/></g><path fill="#fff" d="M559.363 500.117a1.387 1.387 0 0 1-1.386-1.387v-8.746a1.388 1.388 0 1 1 2.777 0v8.746c0 .766-.621 1.387-1.39 1.387zm0 0"/><path fill="#4d1012" d="M559.363 500.645c-1.054 0-1.91-.86-1.91-1.915v-8.746c0-1.054.856-1.914 1.91-1.914 1.055 0 1.914.86 1.914 1.914v8.746c0 1.055-.859 1.915-1.914 1.915zm0-11.524a.864.864 0 0 0-.863.863v8.746a.864.864 0 0 0 1.727 0v-8.746a.864.864 0 0 0-.864-.863zm0 0"/><path fill="#fff" d="M559.363 485.266a1.39 1.39 0 0 1-1.386-1.391v-2.984a1.388 1.388 0 1 1 2.777 0v2.984c0 .766-.621 1.39-1.39 1.39zm0 0"/><path fill="#4d1012" d="M559.363 485.79c-1.054 0-1.91-.86-1.91-1.915v-2.984c0-1.055.856-1.914 1.91-1.914 1.055 0 1.914.859 1.914 1.914v2.984c0 1.055-.859 1.914-1.914 1.914zm0-5.763a.864.864 0 0 0-.863.864v2.984a.864.864 0 0 0 1.727 0v-2.984a.864.864 0 0 0-.864-.864zm0 0"/><g clip-path="url(#k)"><path fill="#ff1c1c" d="M302.89 559.457h-45.945a6.587 6.587 0 0 1-6.586-6.586v-74.07a6.587 6.587 0 0 1 6.586-6.586h45.946a6.583 6.583 0 0 1 6.582 6.586v74.07a6.583 6.583 0 0 1-6.582 6.586zm0 0"/></g><g clip-path="url(#l)"><path fill="#4d1012" d="M302.89 560.113h-45.945c-3.996 0-7.242-3.25-7.242-7.242v-74.07c0-3.992 3.246-7.238 7.242-7.238h45.946a7.245 7.245 0 0 1 7.238 7.238v74.07c0 3.992-3.246 7.242-7.238 7.242zm-45.945-87.242c-3.27 0-5.93 2.66-5.93 5.93v74.07c0 3.27 2.66 5.93 5.93 5.93h45.946c3.27 0 5.93-2.66 5.93-5.93v-74.07c0-3.27-2.66-5.93-5.93-5.93zm0 0"/></g><path fill="#fff" d="M256.262 500.117a1.387 1.387 0 0 1-1.387-1.387v-8.746a1.387 1.387 0 0 1 2.773 0v8.746c0 .766-.62 1.387-1.386 1.387zm0 0"/><path fill="#4d1012" d="M256.262 500.645a1.917 1.917 0 0 1-1.914-1.915v-8.746c0-1.054.859-1.914 1.914-1.914 1.054 0 1.914.86 1.914 1.914v8.746c0 1.055-.86 1.915-1.914 1.915zm0-11.524a.864.864 0 0 0-.864.863v8.746a.864.864 0 0 0 1.727 0v-8.746a.864.864 0 0 0-.863-.863zm0 0"/><path fill="#fff" d="M256.262 485.266a1.39 1.39 0 0 1-1.387-1.391v-2.984a1.387 1.387 0 0 1 2.773 0v2.984a1.39 1.39 0 0 1-1.386 1.39zm0 0"/><path fill="#4d1012" d="M256.262 485.79a1.917 1.917 0 0 1-1.914-1.915v-2.984c0-1.055.859-1.914 1.914-1.914 1.054 0 1.914.859 1.914 1.914v2.984c0 1.055-.86 1.914-1.914 1.914zm0-5.763a.864.864 0 0 0-.864.864v2.984a.864.864 0 0 0 1.727 0v-2.984a.864.864 0 0 0-.863-.864zm0 0"/><path fill="#d92c33" d="M210.004 401.54h-45.945a6.587 6.587 0 0 1-6.586-6.587v-74.07a6.583 6.583 0 0 1 6.586-6.582h45.945a6.58 6.58 0 0 1 6.582 6.582v74.07a6.583 6.583 0 0 1-6.582 6.586zm0 0"/><g clip-path="url(#m)"><path fill="#490a0c" d="M210.004 402.195h-45.945c-3.993 0-7.243-3.25-7.243-7.242v-74.07c0-3.992 3.25-7.238 7.243-7.238h45.945a7.245 7.245 0 0 1 7.238 7.238v74.07c0 3.992-3.246 7.242-7.238 7.242zm-45.945-87.242c-3.27 0-5.93 2.66-5.93 5.93v74.07c0 3.27 2.66 5.93 5.93 5.93h45.945c3.27 0 5.93-2.66 5.93-5.93v-74.07c0-3.27-2.66-5.93-5.93-5.93zm0 0"/></g><path fill="#fff" d="M163.375 342.2a1.387 1.387 0 0 1-1.387-1.387v-8.747a1.387 1.387 0 0 1 2.774 0v8.747c0 .765-.621 1.386-1.387 1.386zm0 0"/><path fill="#490a0c" d="M163.375 342.727a1.917 1.917 0 0 1-1.914-1.914v-8.747c0-1.054.86-1.914 1.914-1.914 1.055 0 1.914.86 1.914 1.914v8.747c0 1.054-.86 1.914-1.914 1.914zm0-11.524a.864.864 0 0 0-.863.863v8.747a.864.864 0 0 0 1.726 0v-8.747a.864.864 0 0 0-.863-.863zm0 0"/><path fill="#fff" d="M163.375 327.348a1.388 1.388 0 0 1-1.387-1.391v-2.984a1.387 1.387 0 0 1 2.774 0v2.984c0 .77-.621 1.39-1.387 1.39zm0 0"/><path fill="#490a0c" d="M163.375 327.871a1.917 1.917 0 0 1-1.914-1.914v-2.984c0-1.055.86-1.914 1.914-1.914 1.055 0 1.914.859 1.914 1.914v2.984c0 1.055-.86 1.914-1.914 1.914zm0-5.762a.864.864 0 0 0-.863.864v2.984a.864.864 0 0 0 1.726 0v-2.984a.864.864 0 0 0-.863-.864zm0 0"/><g clip-path="url(#n)"><path fill="#d92c33" d="M210.219 489.934h-46.133c-3.652 0-6.61-2.942-6.61-6.57V409.46c0-3.629 2.958-6.57 6.61-6.57h46.133c3.652 0 6.613 2.941 6.613 6.57v73.902c0 3.63-2.96 6.57-6.613 6.57zm0 0"/></g><g clip-path="url(#o)"><path fill="#4d1012" d="M210.219 490.59h-46.133c-4.008 0-7.27-3.242-7.27-7.227v-73.902c0-3.984 3.262-7.223 7.27-7.223h46.133c4.008 0 7.27 3.239 7.27 7.223v73.902c0 3.985-3.262 7.227-7.27 7.227zm-46.133-87.043c-3.281 0-5.953 2.652-5.953 5.914v73.902c0 3.266 2.672 5.918 5.953 5.918h46.133c3.281 0 5.953-2.652 5.953-5.918v-73.902c0-3.262-2.672-5.914-5.953-5.914zm0 0"/></g><path fill="#fff" d="M163.402 430.73c-.77 0-1.394-.62-1.394-1.386v-8.727c0-.765.625-1.383 1.394-1.383.77 0 1.395.618 1.395 1.383v8.727c0 .765-.625 1.386-1.395 1.386zm0 0"/><path fill="#4d1012" d="M163.402 431.254a1.918 1.918 0 0 1-1.922-1.91v-8.727c0-1.05.864-1.906 1.922-1.906 1.059 0 1.918.855 1.918 1.906v8.727c0 1.054-.86 1.91-1.918 1.91zm0-11.496a.864.864 0 0 0-.867.86v8.726a.867.867 0 1 0 1.734 0v-8.727c0-.472-.39-.86-.867-.86zm0 0"/><path fill="#fff" d="M163.402 415.91c-.77 0-1.394-.62-1.394-1.387v-2.976c0-.766.625-1.387 1.394-1.387.77 0 1.395.621 1.395 1.387v2.976c0 .766-.625 1.387-1.395 1.387zm0 0"/><path fill="#4d1012" d="M163.402 416.434a1.92 1.92 0 0 1-1.922-1.91v-2.977c0-1.055.864-1.91 1.922-1.91 1.059 0 1.918.855 1.918 1.91v2.976c0 1.051-.86 1.91-1.918 1.91zm0-5.75a.864.864 0 0 0-.867.863v2.976a.867.867 0 1 0 1.734 0v-2.976a.867.867 0 0 0-.867-.863zm0 0"/><path fill="#d92c33" d="M210.219 564.457h-46.133c-3.652 0-6.61-2.941-6.61-6.57v-73.903c0-3.629 2.958-6.57 6.61-6.57h46.133c3.652 0 6.613 2.941 6.613 6.57v73.903c0 3.629-2.96 6.57-6.613 6.57zm0 0"/><g clip-path="url(#p)"><path fill="#4d1012" d="M210.219 565.113h-46.133c-4.008 0-7.27-3.242-7.27-7.226v-73.903c0-3.984 3.262-7.222 7.27-7.222h46.133c4.008 0 7.27 3.238 7.27 7.222v73.903c0 3.984-3.262 7.226-7.27 7.226zm-46.133-87.043c-3.281 0-5.953 2.653-5.953 5.914v73.903c0 3.265 2.672 5.918 5.953 5.918h46.133c3.281 0 5.953-2.653 5.953-5.918v-73.903c0-3.261-2.672-5.914-5.953-5.914zm0 0"/></g><path fill="#fff" d="M163.402 505.254c-.77 0-1.394-.621-1.394-1.387v-8.726a1.39 1.39 0 0 1 1.394-1.383c.77 0 1.395.62 1.395 1.383v8.726c0 .766-.625 1.387-1.395 1.387zm0 0"/><path fill="#4d1012" d="M163.402 505.777a1.918 1.918 0 0 1-1.922-1.91v-8.726c0-1.051.864-1.907 1.922-1.907 1.059 0 1.918.856 1.918 1.907v8.726c0 1.055-.86 1.91-1.918 1.91zm0-11.496a.864.864 0 0 0-.867.86v8.726a.867.867 0 1 0 1.734 0v-8.726c0-.473-.39-.86-.867-.86zm0 0"/><path fill="#fff" d="M163.402 490.434c-.77 0-1.394-.622-1.394-1.387v-2.977c0-.765.625-1.386 1.394-1.386.77 0 1.395.62 1.395 1.386v2.977c0 .765-.625 1.387-1.395 1.387zm0 0"/><path fill="#4d1012" d="M163.402 490.957a1.918 1.918 0 0 1-1.922-1.91v-2.977c0-1.054.864-1.91 1.922-1.91 1.059 0 1.918.856 1.918 1.91v2.977c0 1.055-.86 1.91-1.918 1.91zm0-5.75a.864.864 0 0 0-.867.863v2.977a.867.867 0 1 0 1.734 0v-2.977a.867.867 0 0 0-.867-.863zm0 0"/><g clip-path="url(#q)"><path fill="#d92c33" d="M222.203 384.965H176.07c-3.652 0-6.61-2.942-6.61-6.57v-73.903c0-3.629 2.958-6.57 6.61-6.57h46.133c3.652 0 6.613 2.941 6.613 6.57v73.903c0 3.628-2.96 6.57-6.613 6.57zm0 0"/></g><g clip-path="url(#r)"><path fill="#4d1012" d="M222.203 385.621H176.07c-4.007 0-7.27-3.242-7.27-7.226v-73.903c0-3.984 3.262-7.222 7.27-7.222h46.133c4.008 0 7.27 3.238 7.27 7.222v73.903c0 3.984-3.262 7.226-7.27 7.226zm-46.133-87.047c-3.28 0-5.953 2.656-5.953 5.918v73.903c0 3.261 2.672 5.918 5.953 5.918h46.133c3.281 0 5.953-2.657 5.953-5.918v-73.903c0-3.262-2.672-5.918-5.953-5.918zm0 0"/></g><path fill="#fff" d="M175.387 325.762c-.77 0-1.395-.621-1.395-1.387v-8.727c0-.765.625-1.382 1.395-1.382s1.394.617 1.394 1.382v8.727c0 .766-.625 1.387-1.394 1.387zm0 0"/><path fill="#4d1012" d="M175.387 326.285a1.918 1.918 0 0 1-1.922-1.91v-8.727c0-1.05.863-1.906 1.922-1.906 1.058 0 1.918.856 1.918 1.906v8.727c0 1.055-.86 1.91-1.918 1.91zm0-11.496a.864.864 0 0 0-.867.86v8.726a.867.867 0 1 0 1.734 0v-8.727c0-.472-.39-.859-.867-.859zm0 0"/><path fill="#fff" d="M175.387 310.941c-.77 0-1.395-.62-1.395-1.386v-2.977c0-.765.625-1.387 1.395-1.387s1.394.622 1.394 1.387v2.977c0 .765-.625 1.386-1.394 1.386zm0 0"/><path fill="#4d1012" d="M175.387 311.465a1.92 1.92 0 0 1-1.922-1.91v-2.977c0-1.055.863-1.91 1.922-1.91 1.058 0 1.918.855 1.918 1.91v2.977c0 1.05-.86 1.91-1.918 1.91zm0-5.75a.864.864 0 0 0-.867.863v2.977a.867.867 0 1 0 1.734 0v-2.977a.867.867 0 0 0-.867-.863zm0 0"/><path fill="#d92c33" d="M222.203 473.559H176.07c-3.652 0-6.61-2.942-6.61-6.57v-73.903c0-3.629 2.958-6.57 6.61-6.57h46.133c3.652 0 6.613 2.941 6.613 6.57v73.902c0 3.63-2.96 6.57-6.613 6.57zm0 0"/><g clip-path="url(#s)"><path fill="#4d1012" d="M222.203 474.215H176.07c-4.007 0-7.27-3.242-7.27-7.227v-73.902c0-3.984 3.262-7.227 7.27-7.227h46.133c4.008 0 7.27 3.243 7.27 7.227v73.902c0 3.985-3.262 7.227-7.27 7.227zm-46.133-87.047c-3.28 0-5.953 2.656-5.953 5.918v73.902c0 3.262 2.672 5.918 5.953 5.918h46.133c3.281 0 5.953-2.656 5.953-5.918v-73.902c0-3.262-2.672-5.918-5.953-5.918zm0 0"/></g><path fill="#fff" d="M175.387 414.355c-.77 0-1.395-.62-1.395-1.386v-8.727c0-.765.625-1.383 1.395-1.383s1.394.618 1.394 1.383v8.727c0 .765-.625 1.386-1.394 1.386zm0 0"/><path fill="#4d1012" d="M175.387 414.879a1.918 1.918 0 0 1-1.922-1.91v-8.727c0-1.05.863-1.906 1.922-1.906 1.058 0 1.918.855 1.918 1.906v8.727c0 1.054-.86 1.91-1.918 1.91zm0-11.496a.861.861 0 0 0-.867.86v8.726a.867.867 0 1 0 1.734 0v-8.727c0-.476-.39-.86-.867-.86zm0 0"/><path fill="#fff" d="M175.387 399.535c-.77 0-1.395-.62-1.395-1.387v-2.976c0-.766.625-1.387 1.395-1.387s1.394.621 1.394 1.387v2.976c0 .766-.625 1.387-1.394 1.387zm0 0"/><path fill="#4d1012" d="M175.387 400.055a1.917 1.917 0 0 1-1.922-1.907v-2.976c0-1.055.863-1.91 1.922-1.91 1.058 0 1.918.855 1.918 1.91v2.976c0 1.051-.86 1.907-1.918 1.907zm0-5.746a.864.864 0 0 0-.867.863v2.976a.867.867 0 1 0 1.734 0v-2.976a.867.867 0 0 0-.867-.863zm0 0"/><g clip-path="url(#t)"><path fill="#d92c33" d="M222.203 548.082H176.07c-3.652 0-6.61-2.941-6.61-6.57v-73.903c0-3.629 2.958-6.57 6.61-6.57h46.133c3.652 0 6.613 2.941 6.613 6.57v73.903c0 3.629-2.96 6.57-6.613 6.57zm0 0"/></g><g clip-path="url(#u)"><path fill="#4d1012" d="M222.203 548.738H176.07c-4.007 0-7.27-3.242-7.27-7.226v-73.903c0-3.984 3.262-7.226 7.27-7.226h46.133c4.008 0 7.27 3.242 7.27 7.226v73.903c0 3.984-3.262 7.226-7.27 7.226zm-46.133-87.047c-3.28 0-5.953 2.657-5.953 5.918v73.903c0 3.261 2.672 5.918 5.953 5.918h46.133c3.281 0 5.953-2.657 5.953-5.918v-73.903c0-3.261-2.672-5.918-5.953-5.918zm0 0"/></g><path fill="#fff" d="M175.387 488.879c-.77 0-1.395-.621-1.395-1.387v-8.726c0-.766.625-1.383 1.395-1.383s1.394.617 1.394 1.383v8.726c0 .766-.625 1.387-1.394 1.387zm0 0"/><path fill="#4d1012" d="M175.387 489.402a1.918 1.918 0 0 1-1.922-1.91v-8.726c0-1.051.863-1.907 1.922-1.907 1.058 0 1.918.856 1.918 1.907v8.726c0 1.055-.86 1.91-1.918 1.91zm0-11.496a.864.864 0 0 0-.867.86v8.726a.867.867 0 1 0 1.734 0v-8.726c0-.473-.39-.86-.867-.86zm0 0"/><path fill="#fff" d="M175.387 474.059c-.77 0-1.395-.622-1.395-1.387v-2.977c0-.765.625-1.386 1.395-1.386s1.394.62 1.394 1.386v2.977c0 .765-.625 1.387-1.394 1.387zm0 0"/><path fill="#4d1012" d="M175.387 474.582a1.92 1.92 0 0 1-1.922-1.91v-2.977c0-1.054.863-1.91 1.922-1.91 1.058 0 1.918.856 1.918 1.91v2.977c0 1.05-.86 1.91-1.918 1.91zm0-5.75a.864.864 0 0 0-.867.863v2.977a.867.867 0 1 0 1.734 0v-2.977a.867.867 0 0 0-.867-.863zm0 0"/><g clip-path="url(#v)"><path fill="#ff1c1c" d="M456.54 455.133h-45.946a6.587 6.587 0 0 1-6.586-6.586v-74.07a6.587 6.587 0 0 1 6.586-6.586h45.945a6.587 6.587 0 0 1 6.586 6.586v74.07a6.587 6.587 0 0 1-6.586 6.586zm0 0"/></g><g clip-path="url(#w)"><path fill="#4d1012" d="M456.54 455.79h-45.946c-3.992 0-7.239-3.25-7.239-7.243v-74.07a7.245 7.245 0 0 1 7.239-7.239h45.945c3.992 0 7.242 3.246 7.242 7.239v74.07c0 3.992-3.25 7.242-7.242 7.242zm-45.946-87.243c-3.27 0-5.93 2.66-5.93 5.93v74.07c0 3.27 2.66 5.93 5.93 5.93h45.945c3.27 0 5.93-2.66 5.93-5.93v-74.07c0-3.27-2.66-5.93-5.93-5.93zm0 0"/></g><path fill="#fff" d="M409.914 395.793c-.77 0-1.39-.621-1.39-1.387v-8.746c0-.765.62-1.39 1.39-1.39a1.39 1.39 0 0 1 1.387 1.39v8.746c0 .766-.621 1.387-1.387 1.387zm0 0"/><path fill="#4d1012" d="M409.914 396.32a1.917 1.917 0 0 1-1.914-1.914v-8.746c0-1.055.86-1.914 1.914-1.914 1.055 0 1.91.86 1.91 1.914v8.746a1.914 1.914 0 0 1-1.91 1.914zm0-11.523a.867.867 0 0 0-.867.863v8.746a.866.866 0 0 0 1.73 0v-8.746a.866.866 0 0 0-.863-.863zm0 0"/><path fill="#fff" d="M409.914 380.941c-.77 0-1.39-.625-1.39-1.39v-2.985a1.388 1.388 0 0 1 2.777 0v2.985a1.39 1.39 0 0 1-1.387 1.39zm0 0"/><path fill="#4d1012" d="M409.914 381.465A1.917 1.917 0 0 1 408 379.55v-2.985c0-1.054.86-1.914 1.914-1.914 1.055 0 1.91.86 1.91 1.914v2.985a1.914 1.914 0 0 1-1.91 1.914zm0-5.762a.867.867 0 0 0-.867.863v2.985a.866.866 0 0 0 1.73 0v-2.985a.866.866 0 0 0-.863-.863zm0 0"/><g clip-path="url(#x)"><path fill="#fdf101" d="M164.059 145.082h45.945a6.58 6.58 0 0 1 6.582 6.582v74.07a6.583 6.583 0 0 1-6.582 6.586h-45.945a6.587 6.587 0 0 1-6.586-6.586v-74.07a6.583 6.583 0 0 1 6.586-6.582zm0 0"/></g><g clip-path="url(#y)"><path fill="#0d4a76" d="M164.059 144.426h45.945a7.245 7.245 0 0 1 7.238 7.238v74.07c0 3.993-3.246 7.243-7.238 7.243h-45.945c-3.993 0-7.243-3.25-7.243-7.243v-74.07c0-3.992 3.25-7.238 7.243-7.238zm45.945 87.238c3.27 0 5.93-2.66 5.93-5.93v-74.07c0-3.27-2.66-5.93-5.93-5.93h-45.945c-3.27 0-5.93 2.66-5.93 5.93v74.07c0 3.27 2.66 5.93 5.93 5.93zm0 0"/></g><path fill="#fff" d="M210.684 204.418c.77 0 1.39.621 1.39 1.39v8.747a1.388 1.388 0 0 1-2.777 0v-8.746c0-.77.621-1.391 1.387-1.391zm0 0"/><path fill="#0d4a76" d="M210.684 203.895c1.054 0 1.914.859 1.914 1.914v8.746c0 1.054-.86 1.91-1.914 1.91a1.91 1.91 0 0 1-1.91-1.91v-8.746c0-1.055.855-1.914 1.91-1.914zm0 11.523a.864.864 0 0 0 .863-.863v-8.746a.867.867 0 0 0-.863-.868.867.867 0 0 0-.864.868v8.746c0 .476.387.863.864.863zm0 0"/><path fill="#fff" d="M210.684 219.273c.77 0 1.39.622 1.39 1.387v2.985a1.389 1.389 0 1 1-2.777 0v-2.985c0-.765.621-1.387 1.387-1.387zm0 0"/><path fill="#0d4a76" d="M210.684 218.75c1.054 0 1.914.855 1.914 1.91v2.985c0 1.054-.86 1.914-1.914 1.914-1.055 0-1.91-.86-1.91-1.914v-2.985a1.91 1.91 0 0 1 1.91-1.91zm0 5.762c.476 0 .863-.39.863-.867v-2.985a.864.864 0 0 0-1.727 0v2.985c0 .476.387.867.864.867zm0 0"/><path fill="#fdf101" d="M164.059 47.191h45.945a6.58 6.58 0 0 1 6.582 6.582v74.07a6.583 6.583 0 0 1-6.582 6.587h-45.945a6.587 6.587 0 0 1-6.586-6.586v-74.07a6.583 6.583 0 0 1 6.586-6.583zm0 0"/><g clip-path="url(#z)"><path fill="#0d4a76" d="M164.059 46.535h45.945a7.245 7.245 0 0 1 7.238 7.238v74.07c0 3.993-3.246 7.243-7.238 7.243h-45.945c-3.993 0-7.243-3.25-7.243-7.242v-74.07c0-3.993 3.25-7.239 7.243-7.239zm45.945 87.238c3.27 0 5.93-2.66 5.93-5.93v-74.07c0-3.27-2.66-5.925-5.93-5.925h-45.945a5.933 5.933 0 0 0-5.93 5.925v74.07c0 3.27 2.66 5.93 5.93 5.93zm0 0"/></g><path fill="#fff" d="M210.684 106.527c.77 0 1.39.621 1.39 1.391v8.746a1.388 1.388 0 0 1-2.777 0v-8.746c0-.77.621-1.39 1.387-1.39zm0 0"/><path fill="#0d4a76" d="M210.684 106.004c1.054 0 1.914.86 1.914 1.914v8.746c0 1.055-.86 1.91-1.914 1.91a1.91 1.91 0 0 1-1.91-1.91v-8.746c0-1.055.855-1.914 1.91-1.914zm0 11.523a.864.864 0 0 0 .863-.863v-8.746a.864.864 0 0 0-1.727 0v8.746c0 .477.387.863.864.863zm0 0"/><path fill="#fff" d="M210.684 121.383c.77 0 1.39.62 1.39 1.387v2.988a1.388 1.388 0 0 1-2.777 0v-2.988c0-.766.621-1.387 1.387-1.387zm0 0"/><path fill="#0d4a76" d="M210.684 120.86c1.054 0 1.914.855 1.914 1.91v2.988c0 1.055-.86 1.91-1.914 1.91a1.91 1.91 0 0 1-1.91-1.91v-2.988a1.91 1.91 0 0 1 1.91-1.91zm0 5.761a.864.864 0 0 0 .863-.863v-2.988a.866.866 0 0 0-.863-.864.866.866 0 0 0-.864.864v2.988c0 .476.387.863.864.863zm0 0"/><path fill="#fdf101" d="M482.414 31.46h45.945a6.583 6.583 0 0 1 6.586 6.583v74.07a6.587 6.587 0 0 1-6.586 6.586h-45.945a6.583 6.583 0 0 1-6.582-6.586v-74.07a6.58 6.58 0 0 1 6.582-6.582zm0 0"/><g clip-path="url(#A)"><path fill="#0d4a76" d="M482.414 30.805h45.945c3.993 0 7.243 3.246 7.243 7.238v74.07c0 3.992-3.25 7.242-7.243 7.242h-45.945c-3.992 0-7.238-3.25-7.238-7.242v-74.07a7.245 7.245 0 0 1 7.238-7.238zm45.945 87.238c3.27 0 5.93-2.66 5.93-5.93v-74.07c0-3.27-2.66-5.93-5.93-5.93h-45.945c-3.27 0-5.93 2.66-5.93 5.93v74.07c0 3.27 2.66 5.93 5.93 5.93zm0 0"/></g><path fill="#fff" d="M529.043 90.797c.766 0 1.387.621 1.387 1.39v8.747a1.387 1.387 0 0 1-2.774 0v-8.746c0-.77.621-1.391 1.387-1.391zm0 0"/><path fill="#0d4a76" d="M529.043 90.273c1.055 0 1.914.86 1.914 1.915v8.746a1.914 1.914 0 0 1-3.828 0v-8.746c0-1.055.86-1.915 1.914-1.915zm0 11.524a.864.864 0 0 0 .863-.863v-8.746a.867.867 0 0 0-.863-.868.867.867 0 0 0-.863.868v8.746c0 .476.386.863.863.863zm0 0"/><path fill="#fff" d="M529.043 105.652c.766 0 1.387.621 1.387 1.387v2.984a1.388 1.388 0 1 1-2.774 0v-2.984c0-.766.621-1.387 1.387-1.387zm0 0"/><path fill="#0d4a76" d="M529.043 105.129c1.055 0 1.914.855 1.914 1.91v2.984c0 1.055-.86 1.915-1.914 1.915a1.917 1.917 0 0 1-1.914-1.915v-2.984c0-1.055.86-1.91 1.914-1.91zm0 5.762c.477 0 .863-.391.863-.868v-2.984a.864.864 0 0 0-1.726 0v2.984c0 .477.386.868.863.868zm0 0"/><g clip-path="url(#B)"><path fill="#fdf101" d="M405.672 31.46h45.945a6.583 6.583 0 0 1 6.586 6.583v74.07a6.587 6.587 0 0 1-6.586 6.586h-45.945a6.587 6.587 0 0 1-6.586-6.586v-74.07a6.583 6.583 0 0 1 6.586-6.582zm0 0"/></g><g clip-path="url(#C)"><path fill="#0d4a76" d="M405.672 30.805h45.945a7.245 7.245 0 0 1 7.238 7.238v74.07c0 3.992-3.246 7.242-7.238 7.242h-45.945c-3.992 0-7.242-3.25-7.242-7.242v-74.07c0-3.992 3.25-7.238 7.242-7.238zm45.945 87.238c3.27 0 5.93-2.66 5.93-5.93v-74.07c0-3.27-2.66-5.93-5.93-5.93h-45.945c-3.27 0-5.93 2.66-5.93 5.93v74.07c0 3.27 2.66 5.93 5.93 5.93zm0 0"/></g><path fill="#fff" d="M452.297 90.797c.77 0 1.39.621 1.39 1.39v8.747a1.388 1.388 0 0 1-2.777 0v-8.746c0-.77.621-1.391 1.387-1.391zm0 0"/><path fill="#0d4a76" d="M452.297 90.273c1.055 0 1.914.86 1.914 1.915v8.746c0 1.054-.86 1.91-1.914 1.91a1.91 1.91 0 0 1-1.91-1.91v-8.746c0-1.055.855-1.915 1.91-1.915zm0 11.524a.867.867 0 0 0 .867-.863v-8.746a.87.87 0 0 0-.867-.868.87.87 0 0 0-.863.868v8.746c0 .476.39.863.863.863zm0 0"/><path fill="#fff" d="M452.297 105.652c.77 0 1.39.621 1.39 1.387v2.984a1.389 1.389 0 1 1-2.777 0v-2.984c0-.766.621-1.387 1.387-1.387zm0 0"/><path fill="#0d4a76" d="M452.297 105.129c1.055 0 1.914.855 1.914 1.91v2.984c0 1.055-.86 1.915-1.914 1.915-1.055 0-1.91-.86-1.91-1.915v-2.984a1.91 1.91 0 0 1 1.91-1.91zm0 5.762a.87.87 0 0 0 .867-.868v-2.984a.866.866 0 0 0-1.73 0v2.984c0 .477.39.868.863.868zm0 0"/><g clip-path="url(#D)"><path fill="#fdf101" d="M328.766 31.46h45.945a6.58 6.58 0 0 1 6.582 6.583v74.07a6.583 6.583 0 0 1-6.582 6.586h-45.945a6.587 6.587 0 0 1-6.586-6.586v-74.07a6.583 6.583 0 0 1 6.586-6.582zm0 0"/></g><g clip-path="url(#E)"><path fill="#0d4a76" d="M328.766 30.805h45.945a7.245 7.245 0 0 1 7.238 7.238v74.07c0 3.992-3.246 7.242-7.238 7.242h-45.945c-3.993 0-7.243-3.25-7.243-7.242v-74.07c0-3.992 3.25-7.238 7.243-7.238zm45.945 87.238c3.27 0 5.93-2.66 5.93-5.93v-74.07c0-3.27-2.66-5.93-5.93-5.93h-45.945c-3.27 0-5.93 2.66-5.93 5.93v74.07c0 3.27 2.66 5.93 5.93 5.93zm0 0"/></g><path fill="#fff" d="M375.39 90.797c.77 0 1.391.621 1.391 1.39v8.747a1.388 1.388 0 0 1-2.777 0v-8.746c0-.77.621-1.391 1.387-1.391zm0 0"/><path fill="#0d4a76" d="M375.39 90.273c1.055 0 1.915.86 1.915 1.915v8.746c0 1.054-.86 1.91-1.914 1.91a1.91 1.91 0 0 1-1.91-1.91v-8.746c0-1.055.855-1.915 1.91-1.915zm0 11.524a.864.864 0 0 0 .864-.863v-8.746a.867.867 0 0 0-.863-.868.867.867 0 0 0-.864.868v8.746c0 .476.387.863.864.863zm0 0"/><path fill="#fff" d="M375.39 105.652c.77 0 1.391.621 1.391 1.387v2.984a1.389 1.389 0 1 1-2.777 0v-2.984c0-.766.621-1.387 1.387-1.387zm0 0"/><path fill="#0d4a76" d="M375.39 105.129c1.055 0 1.915.855 1.915 1.91v2.984c0 1.055-.86 1.915-1.914 1.915-1.055 0-1.91-.86-1.91-1.915v-2.984a1.91 1.91 0 0 1 1.91-1.91zm0 5.762c.477 0 .864-.391.864-.868v-2.984a.864.864 0 0 0-1.727 0v2.984c0 .477.387.868.864.868zm0 0"/><path fill="#fdf101" d="M256.219 31.46h45.945a6.583 6.583 0 0 1 6.586 6.583v74.07a6.587 6.587 0 0 1-6.586 6.586H256.22a6.587 6.587 0 0 1-6.586-6.586v-74.07a6.583 6.583 0 0 1 6.586-6.582zm0 0"/><g clip-path="url(#F)"><path fill="#0d4a76" d="M256.219 30.805h45.945c3.992 0 7.242 3.246 7.242 7.238v74.07c0 3.992-3.25 7.242-7.242 7.242H256.22c-3.992 0-7.242-3.25-7.242-7.242v-74.07c0-3.992 3.25-7.238 7.242-7.238zm45.945 87.238c3.27 0 5.93-2.66 5.93-5.93v-74.07c0-3.27-2.66-5.93-5.93-5.93H256.22c-3.27 0-5.93 2.66-5.93 5.93v74.07c0 3.27 2.66 5.93 5.93 5.93zm0 0"/></g><path fill="#fff" d="M302.848 90.797c.765 0 1.386.621 1.386 1.39v8.747a1.388 1.388 0 1 1-2.777 0v-8.746c0-.77.621-1.391 1.39-1.391zm0 0"/><path fill="#0d4a76" d="M302.848 90.273c1.054 0 1.91.86 1.91 1.915v8.746a1.91 1.91 0 0 1-1.91 1.91 1.914 1.914 0 0 1-1.914-1.91v-8.746c0-1.055.859-1.915 1.914-1.915zm0 11.524a.864.864 0 0 0 .863-.863v-8.746a.867.867 0 0 0-.863-.868.87.87 0 0 0-.868.868v8.746c0 .476.391.863.868.863zm0 0"/><path fill="#fff" d="M302.848 105.652c.765 0 1.386.621 1.386 1.387v2.984a1.388 1.388 0 1 1-2.777 0v-2.984c0-.766.621-1.387 1.39-1.387zm0 0"/><path fill="#0d4a76" d="M302.848 105.129a1.91 1.91 0 0 1 1.91 1.91v2.984a1.914 1.914 0 0 1-1.91 1.915 1.917 1.917 0 0 1-1.914-1.915v-2.984c0-1.055.859-1.91 1.914-1.91zm0 5.762c.476 0 .863-.391.863-.868v-2.984a.864.864 0 0 0-.863-.863.867.867 0 0 0-.868.863v2.984c0 .477.391.868.868.868zm0 0"/><path fill="#fdf101" d="M559.32 31.46h45.946a6.583 6.583 0 0 1 6.586 6.583v74.07a6.587 6.587 0 0 1-6.586 6.586H559.32a6.583 6.583 0 0 1-6.582-6.586v-74.07a6.58 6.58 0 0 1 6.582-6.582zm0 0"/><g clip-path="url(#G)"><path fill="#0d4a76" d="M559.32 30.805h45.946c3.992 0 7.242 3.246 7.242 7.238v74.07c0 3.992-3.25 7.242-7.242 7.242H559.32c-3.992 0-7.238-3.25-7.238-7.242v-74.07a7.245 7.245 0 0 1 7.238-7.238zm45.946 87.238c3.27 0 5.93-2.66 5.93-5.93v-74.07c0-3.27-2.66-5.93-5.93-5.93H559.32c-3.27 0-5.93 2.66-5.93 5.93v74.07c0 3.27 2.66 5.93 5.93 5.93zm0 0"/></g><path fill="#fff" d="M605.95 90.797c.765 0 1.386.621 1.386 1.39v8.747a1.387 1.387 0 0 1-2.774 0v-8.746c0-.77.622-1.391 1.387-1.391zm0 0"/><path fill="#0d4a76" d="M605.95 90.273c1.054 0 1.913.86 1.913 1.915v8.746a1.914 1.914 0 0 1-3.828 0v-8.746c0-1.055.86-1.915 1.914-1.915zm0 11.524a.864.864 0 0 0 .862-.863v-8.746a.867.867 0 0 0-.863-.868.867.867 0 0 0-.863.868v8.746c0 .476.387.863.863.863zm0 0"/><path fill="#fff" d="M605.95 105.652c.765 0 1.386.621 1.386 1.387v2.984a1.388 1.388 0 1 1-2.774 0v-2.984c0-.766.622-1.387 1.387-1.387zm0 0"/><path fill="#0d4a76" d="M605.95 105.129c1.054 0 1.913.855 1.913 1.91v2.984c0 1.055-.86 1.915-1.914 1.915a1.917 1.917 0 0 1-1.914-1.915v-2.984c0-1.055.86-1.91 1.914-1.91zm0 5.762c.476 0 .862-.391.862-.868v-2.984a.864.864 0 0 0-1.726 0v2.984c0 .477.387.868.863.868zm0 0"/><g clip-path="url(#H)"><path fill="#ede320" d="M652.207 100.785h45.945a6.583 6.583 0 0 1 6.586 6.582v74.07a6.587 6.587 0 0 1-6.586 6.586h-45.945a6.583 6.583 0 0 1-6.582-6.585v-74.07a6.58 6.58 0 0 1 6.582-6.583zm0 0"/></g><g clip-path="url(#I)"><path fill="#0d4a76" d="M652.207 100.129h45.945c3.993 0 7.243 3.246 7.243 7.238v74.07c0 3.993-3.25 7.243-7.243 7.243h-45.945c-3.992 0-7.238-3.25-7.238-7.243v-74.07a7.245 7.245 0 0 1 7.238-7.238zm45.945 87.238c3.27 0 5.93-2.66 5.93-5.93v-74.07c0-3.27-2.66-5.93-5.93-5.93h-45.945c-3.27 0-5.93 2.66-5.93 5.93v74.07c0 3.27 2.66 5.93 5.93 5.93zm0 0"/></g><path fill="#fff" d="M698.836 160.121c.766 0 1.387.621 1.387 1.39v8.747a1.387 1.387 0 0 1-2.774 0v-8.746c0-.77.621-1.39 1.387-1.39zm0 0"/><path fill="#0d4a76" d="M698.836 159.598c1.055 0 1.914.859 1.914 1.914v8.746a1.914 1.914 0 0 1-3.828 0v-8.746c0-1.055.86-1.914 1.914-1.914zm0 11.523a.864.864 0 0 0 .863-.863v-8.746a.864.864 0 0 0-1.726 0v8.746c0 .476.386.863.863.863zm0 0"/><path fill="#fff" d="M698.836 174.977c.766 0 1.387.62 1.387 1.386v2.985a1.388 1.388 0 1 1-2.774 0v-2.985c0-.765.621-1.386 1.387-1.386zm0 0"/><path fill="#0d4a76" d="M698.836 174.453c1.055 0 1.914.856 1.914 1.91v2.985c0 1.054-.86 1.914-1.914 1.914a1.917 1.917 0 0 1-1.914-1.914v-2.985c0-1.054.86-1.91 1.914-1.91zm0 5.762c.476 0 .863-.39.863-.863v-2.989a.864.864 0 0 0-1.726 0v2.989c0 .472.386.863.863.863zm0 0"/><path fill="#ede320" d="M652.207 26.262h45.945a6.583 6.583 0 0 1 6.586 6.582v74.07a6.587 6.587 0 0 1-6.586 6.586h-45.945a6.583 6.583 0 0 1-6.582-6.586v-74.07a6.58 6.58 0 0 1 6.582-6.582zm0 0"/><g clip-path="url(#J)"><path fill="#0d4a76" d="M652.207 25.605h45.945c3.993 0 7.243 3.247 7.243 7.239v74.07c0 3.992-3.25 7.242-7.243 7.242h-45.945c-3.992 0-7.238-3.25-7.238-7.242v-74.07a7.245 7.245 0 0 1 7.238-7.239zm45.945 87.239c3.27 0 5.93-2.66 5.93-5.93v-74.07c0-3.27-2.66-5.93-5.93-5.93h-45.945c-3.27 0-5.93 2.66-5.93 5.93v74.07c0 3.27 2.66 5.93 5.93 5.93zm0 0"/></g><path fill="#fff" d="M698.836 85.598c.766 0 1.387.62 1.387 1.39v8.746a1.387 1.387 0 0 1-2.774 0v-8.746c0-.77.621-1.39 1.387-1.39zm0 0"/><path fill="#0d4a76" d="M698.836 85.074c1.055 0 1.914.86 1.914 1.914v8.746a1.914 1.914 0 0 1-3.828 0v-8.746c0-1.054.86-1.914 1.914-1.914zm0 11.524a.864.864 0 0 0 .863-.864v-8.746a.867.867 0 0 0-.863-.867.867.867 0 0 0-.863.867v8.746c0 .477.386.864.863.864zm0 0"/><path fill="#fff" d="M698.836 100.453c.766 0 1.387.621 1.387 1.387v2.984a1.388 1.388 0 1 1-2.774 0v-2.984c0-.766.621-1.387 1.387-1.387zm0 0"/><path fill="#0d4a76" d="M698.836 99.93c1.055 0 1.914.855 1.914 1.91v2.984c0 1.055-.86 1.914-1.914 1.914a1.917 1.917 0 0 1-1.914-1.914v-2.984c0-1.055.86-1.91 1.914-1.91zm0 5.761c.476 0 .863-.39.863-.867v-2.984a.864.864 0 0 0-1.726 0v2.984c0 .477.386.867.863.867zm0 0"/><path fill="#ede320" d="M652.207 189.375h45.945a6.587 6.587 0 0 1 6.586 6.586v74.07a6.587 6.587 0 0 1-6.586 6.586h-45.945a6.583 6.583 0 0 1-6.582-6.586v-74.07a6.583 6.583 0 0 1 6.582-6.586zm0 0"/><g clip-path="url(#K)"><path fill="#0d4a76" d="M652.207 188.723h45.945c3.993 0 7.243 3.246 7.243 7.238v74.07c0 3.992-3.25 7.242-7.243 7.242h-45.945c-3.992 0-7.238-3.25-7.238-7.242v-74.07a7.245 7.245 0 0 1 7.238-7.238zm45.945 87.238c3.27 0 5.93-2.66 5.93-5.93v-74.07c0-3.27-2.66-5.93-5.93-5.93h-45.945c-3.27 0-5.93 2.66-5.93 5.93v74.07c0 3.27 2.66 5.93 5.93 5.93zm0 0"/></g><path fill="#fff" d="M698.836 248.715c.766 0 1.387.62 1.387 1.39v8.747a1.387 1.387 0 0 1-2.774 0v-8.747c0-.77.621-1.39 1.387-1.39zm0 0"/><path fill="#0d4a76" d="M698.836 248.191c1.055 0 1.914.86 1.914 1.914v8.747a1.914 1.914 0 0 1-3.828 0v-8.747c0-1.054.86-1.914 1.914-1.914zm0 11.524a.864.864 0 0 0 .863-.863v-8.747a.867.867 0 0 0-.863-.867.867.867 0 0 0-.863.867v8.747c0 .476.386.863.863.863zm0 0"/><path fill="#fff" d="M698.836 263.57c.766 0 1.387.621 1.387 1.387v2.984a1.388 1.388 0 1 1-2.774 0v-2.984c0-.766.621-1.387 1.387-1.387zm0 0"/><path fill="#0d4a76" d="M698.836 263.047c1.055 0 1.914.855 1.914 1.91v2.984c0 1.055-.86 1.914-1.914 1.914a1.917 1.917 0 0 1-1.914-1.914v-2.984c0-1.055.86-1.91 1.914-1.91zm0 5.762c.476 0 .863-.391.863-.868v-2.984a.864.864 0 0 0-1.726 0v2.984c0 .477.386.868.863.868zm0 0"/><g clip-path="url(#L)"><path fill="#fdf101" d="M640.223 205.754h45.945a6.583 6.583 0 0 1 6.586 6.582v74.07a6.587 6.587 0 0 1-6.586 6.586h-45.945a6.583 6.583 0 0 1-6.582-6.586v-74.07a6.58 6.58 0 0 1 6.582-6.582zm0 0"/></g><g clip-path="url(#M)"><path fill="#0d4a76" d="M640.223 205.098h45.945c3.992 0 7.242 3.246 7.242 7.238v74.07c0 3.992-3.25 7.242-7.242 7.242h-45.945c-3.993 0-7.239-3.25-7.239-7.242v-74.07a7.245 7.245 0 0 1 7.239-7.238zm45.945 87.238c3.27 0 5.93-2.66 5.93-5.93v-74.07c0-3.27-2.66-5.93-5.93-5.93h-45.945c-3.27 0-5.93 2.66-5.93 5.93v74.07c0 3.27 2.66 5.93 5.93 5.93zm0 0"/></g><path fill="#fff" d="M686.852 265.09c.765 0 1.386.62 1.386 1.39v8.747a1.387 1.387 0 0 1-2.773 0v-8.747c0-.77.62-1.39 1.387-1.39zm0 0"/><path fill="#0d4a76" d="M686.852 264.566c1.054 0 1.914.86 1.914 1.914v8.747a1.914 1.914 0 0 1-3.828 0v-8.747c0-1.054.859-1.914 1.914-1.914zm0 11.524a.864.864 0 0 0 .863-.863v-8.747a.864.864 0 0 0-1.727 0v8.747c0 .476.387.863.864.863zm0 0"/><path fill="#fff" d="M686.852 279.945c.765 0 1.386.621 1.386 1.387v2.988a1.387 1.387 0 0 1-2.773 0v-2.988c0-.766.62-1.387 1.387-1.387zm0 0"/><path fill="#0d4a76" d="M686.852 279.422c1.054 0 1.914.855 1.914 1.91v2.988a1.914 1.914 0 0 1-3.828 0v-2.988c0-1.055.859-1.91 1.914-1.91zm0 5.762c.476 0 .863-.391.863-.864v-2.988a.866.866 0 0 0-.863-.863.866.866 0 0 0-.864.863v2.988c0 .473.387.864.864.864zm0 0"/><path fill="#fdf101" d="M640.223 117.16h45.945a6.583 6.583 0 0 1 6.586 6.582v74.07a6.587 6.587 0 0 1-6.586 6.586h-45.945a6.583 6.583 0 0 1-6.582-6.585v-74.067a6.58 6.58 0 0 1 6.582-6.586zm0 0"/><g clip-path="url(#N)"><path fill="#0d4a76" d="M640.223 116.504h45.945c3.992 0 7.242 3.246 7.242 7.242v74.067c0 3.996-3.25 7.242-7.242 7.242h-45.945c-3.993 0-7.239-3.246-7.239-7.243v-74.066c0-3.996 3.246-7.242 7.239-7.242zm45.945 87.238c3.27 0 5.93-2.66 5.93-5.93v-74.066c0-3.27-2.66-5.93-5.93-5.93h-45.945c-3.27 0-5.93 2.66-5.93 5.93v74.067c0 3.269 2.66 5.93 5.93 5.93zm0 0"/></g><path fill="#fff" d="M686.852 176.496c.765 0 1.386.621 1.386 1.39v8.747a1.387 1.387 0 0 1-2.773 0v-8.746c0-.77.62-1.39 1.387-1.39zm0 0"/><path fill="#0d4a76" d="M686.852 175.973c1.054 0 1.914.859 1.914 1.914v8.746a1.914 1.914 0 0 1-3.828 0v-8.746c0-1.055.859-1.914 1.914-1.914zm0 11.523a.864.864 0 0 0 .863-.863v-8.746a.864.864 0 0 0-1.727 0v8.746c0 .476.387.863.864.863zm0 0"/><path fill="#fff" d="M686.852 191.352c.765 0 1.386.62 1.386 1.39v2.985a1.387 1.387 0 0 1-2.773 0v-2.985c0-.77.62-1.39 1.387-1.39zm0 0"/><path fill="#0d4a76" d="M686.852 190.828c1.054 0 1.914.86 1.914 1.914v2.985a1.914 1.914 0 0 1-3.828 0v-2.985c0-1.054.859-1.914 1.914-1.914zm0 5.762a.864.864 0 0 0 .863-.863v-2.985a.867.867 0 0 0-.863-.867.867.867 0 0 0-.864.867v2.985c0 .476.387.863.864.863zm0 0"/><g clip-path="url(#O)"><path fill="#fdf101" d="M640.223 42.637h45.945a6.583 6.583 0 0 1 6.586 6.582v74.07a6.587 6.587 0 0 1-6.586 6.586h-45.945a6.583 6.583 0 0 1-6.582-6.586V49.22a6.58 6.58 0 0 1 6.582-6.582zm0 0"/></g><g clip-path="url(#P)"><path fill="#0d4a76" d="M640.223 41.98h45.945c3.992 0 7.242 3.247 7.242 7.239v74.07c0 3.996-3.25 7.242-7.242 7.242h-45.945c-3.993 0-7.239-3.246-7.239-7.242V49.22a7.245 7.245 0 0 1 7.239-7.239zm45.945 87.239c3.27 0 5.93-2.66 5.93-5.93V49.22c0-3.27-2.66-5.926-5.93-5.926h-45.945a5.933 5.933 0 0 0-5.93 5.926v74.07c0 3.27 2.66 5.93 5.93 5.93zm0 0"/></g><path fill="#fff" d="M686.852 101.973c.765 0 1.386.62 1.386 1.39v8.746a1.387 1.387 0 0 1-2.773 0v-8.746c0-.77.62-1.39 1.387-1.39zm0 0"/><path fill="#0d4a76" d="M686.852 101.45c1.054 0 1.914.859 1.914 1.913v8.746a1.914 1.914 0 0 1-3.828 0v-8.746c0-1.054.859-1.914 1.914-1.914zm0 11.523a.864.864 0 0 0 .863-.864v-8.746a.864.864 0 0 0-1.727 0v8.746c0 .477.387.864.864.864zm0 0"/><path fill="#fff" d="M686.852 116.828c.765 0 1.386.621 1.386 1.39v2.985a1.387 1.387 0 0 1-2.773 0v-2.984c0-.77.62-1.39 1.387-1.39zm0 0"/><path fill="#0d4a76" d="M686.852 116.305c1.054 0 1.914.86 1.914 1.914v2.984a1.914 1.914 0 0 1-3.828 0v-2.984c0-1.055.859-1.914 1.914-1.914zm0 5.761a.864.864 0 0 0 .863-.863v-2.984a.867.867 0 0 0-.863-.867.867.867 0 0 0-.864.867v2.984c0 .477.387.863.864.863zm0 0"/><g clip-path="url(#Q)"><path fill="#fdf101" d="M405.672 135.785h45.945a6.583 6.583 0 0 1 6.586 6.582v74.07a6.587 6.587 0 0 1-6.586 6.586h-45.945a6.587 6.587 0 0 1-6.586-6.585v-74.07a6.583 6.583 0 0 1 6.586-6.583zm0 0"/></g><g clip-path="url(#R)"><path fill="#0d4a76" d="M405.672 135.129h45.945a7.245 7.245 0 0 1 7.238 7.238v74.07c0 3.993-3.246 7.243-7.238 7.243h-45.945c-3.992 0-7.242-3.25-7.242-7.243v-74.07c0-3.992 3.25-7.238 7.242-7.238zm45.945 87.238c3.27 0 5.93-2.66 5.93-5.93v-74.07c0-3.27-2.66-5.93-5.93-5.93h-45.945c-3.27 0-5.93 2.66-5.93 5.93v74.07c0 3.27 2.66 5.93 5.93 5.93zm0 0"/></g><path fill="#fff" d="M452.297 195.121c.77 0 1.39.621 1.39 1.39v8.747a1.388 1.388 0 0 1-2.777 0v-8.746c0-.77.621-1.39 1.387-1.39zm0 0"/><path fill="#0d4a76" d="M452.297 194.598c1.055 0 1.914.859 1.914 1.914v8.746c0 1.054-.86 1.91-1.914 1.91a1.91 1.91 0 0 1-1.91-1.91v-8.746c0-1.055.855-1.914 1.91-1.914zm0 11.523a.867.867 0 0 0 .867-.863v-8.746a.87.87 0 0 0-.867-.867.87.87 0 0 0-.863.867v8.746c0 .476.39.863.863.863zm0 0"/><path fill="#fff" d="M452.297 209.977c.77 0 1.39.62 1.39 1.386v2.985a1.389 1.389 0 1 1-2.777 0v-2.985c0-.765.621-1.386 1.387-1.386zm0 0"/><path fill="#0d4a76" d="M452.297 209.453c1.055 0 1.914.856 1.914 1.91v2.985c0 1.054-.86 1.914-1.914 1.914-1.055 0-1.91-.86-1.91-1.914v-2.985a1.91 1.91 0 0 1 1.91-1.91zm0 5.762a.87.87 0 0 0 .867-.867v-2.985a.866.866 0 0 0-1.73 0v2.985c0 .476.39.867.863.867zm0 0"/><g clip-path="url(#S)"><path fill="#231f20" d="M431.23 345.883a50.422 50.422 0 0 1-9.55-.91 50.695 50.695 0 0 1-9.2-2.711 50.006 50.006 0 0 1-12.422-7.215 50.578 50.578 0 0 1-6.917-6.652 48.526 48.526 0 0 1-2.954-3.79 51.505 51.505 0 0 1-2.578-4.054 50.107 50.107 0 0 1-2.175-4.285 48.27 48.27 0 0 1-1.758-4.473 50.146 50.146 0 0 1-2.203-9.344 51.772 51.772 0 0 1-.422-4.789.597.597 0 0 1 .172-.45.594.594 0 0 1 .441-.187h30.695c.157 0 .293.051.41.157a.586.586 0 0 1 .2.39c.12 1.118.34 2.22.66 3.293a18.723 18.723 0 0 0 1.25 3.121c.512 1 1.11 1.946 1.797 2.836a17.945 17.945 0 0 0 2.281 2.465 18.386 18.386 0 0 0 5.7 3.492c1.05.403 2.128.707 3.23.91 1.105.208 2.218.31 3.343.31s2.239-.102 3.344-.31a18.308 18.308 0 0 0 8.93-4.402c.836-.75 1.598-1.57 2.281-2.465a18.187 18.187 0 0 0 3.043-5.957c.324-1.074.543-2.175.664-3.293a.586.586 0 0 1 .2-.39.592.592 0 0 1 .41-.157h30.695c.172 0 .32.063.441.188a.597.597 0 0 1 .172.45 51.772 51.772 0 0 1-.422 4.788 51.057 51.057 0 0 1-.875 4.727 51.035 51.035 0 0 1-1.324 4.617 49.422 49.422 0 0 1-1.762 4.473 50.107 50.107 0 0 1-2.175 4.285 48.68 48.68 0 0 1-2.579 4.054 50.275 50.275 0 0 1-2.949 3.793 50.627 50.627 0 0 1-3.3 3.489 50.74 50.74 0 0 1-7.523 5.96 51.084 51.084 0 0 1-4.157 2.41 50.201 50.201 0 0 1-8.898 3.582 50.096 50.096 0 0 1-14.215 2.043zM382.31 298.25a48.863 48.863 0 0 0 48.921 46.406 48.86 48.86 0 0 0 48.922-46.406h-29.507a19.427 19.427 0 0 1-.782 3.426 19.717 19.717 0 0 1-3.316 6.168 19.678 19.678 0 0 1-5.27 4.605 19.65 19.65 0 0 1-3.164 1.524c-1.101.414-2.23.726-3.386.933a19.43 19.43 0 0 1-6.993 0 19.253 19.253 0 0 1-3.386-.933 19.65 19.65 0 0 1-3.164-1.524 19.678 19.678 0 0 1-5.27-4.605 19.416 19.416 0 0 1-1.934-2.934 19.37 19.37 0 0 1-1.382-3.234 19.427 19.427 0 0 1-.782-3.426zm0 0"/></g><g clip-path="url(#T)"><path fill="#231f20" d="M480.797 294.203h-30.695a.596.596 0 0 1-.41-.16.586.586 0 0 1-.2-.39 18.225 18.225 0 0 0-.664-3.294 18.187 18.187 0 0 0-3.043-5.957 18.174 18.174 0 0 0-2.281-2.464 18.385 18.385 0 0 0-5.7-3.492 18.308 18.308 0 0 0-3.23-.91 18.114 18.114 0 0 0-3.344-.31c-1.125 0-2.238.102-3.343.31a18.308 18.308 0 0 0-8.93 4.401 18.174 18.174 0 0 0-2.281 2.465 18.187 18.187 0 0 0-1.797 2.836 18.723 18.723 0 0 0-1.25 3.121 18.558 18.558 0 0 0-.66 3.293.586.586 0 0 1-.2.391.596.596 0 0 1-.41.16h-30.695a.597.597 0 0 1-.441-.191.597.597 0 0 1-.172-.45c.058-1.398.176-2.792.351-4.18a49.468 49.468 0 0 1 1.73-8.206 49.996 49.996 0 0 1 3.07-7.8 49.38 49.38 0 0 1 2.013-3.68 50.37 50.37 0 0 1 4.902-6.797 50.625 50.625 0 0 1 5.969-5.887 51.397 51.397 0 0 1 3.328-2.551 50.763 50.763 0 0 1 7.234-4.223 49.927 49.927 0 0 1 3.86-1.64 49.34 49.34 0 0 1 3.976-1.317 49.128 49.128 0 0 1 4.079-.98 49.359 49.359 0 0 1 4.144-.637 49.727 49.727 0 0 1 8.371-.226 49.92 49.92 0 0 1 12.34 2.269c1.332.422 2.644.898 3.937 1.434a49.328 49.328 0 0 1 3.81 1.757 49.923 49.923 0 0 1 7.108 4.434 50.24 50.24 0 0 1 13.743 15.645 49.387 49.387 0 0 1 1.902 3.738 49.397 49.397 0 0 1 4.492 18.848.597.597 0 0 1-.172.449.597.597 0 0 1-.441.191zm-30.152-1.23h29.507a48.857 48.857 0 0 0-48.922-46.403 48.86 48.86 0 0 0-48.921 46.403h29.507c.157-1.164.418-2.309.782-3.426a19.51 19.51 0 0 1 1.382-3.235 19.416 19.416 0 0 1 4.364-5.472 19.678 19.678 0 0 1 2.84-2.067 19.65 19.65 0 0 1 3.164-1.523 19.253 19.253 0 0 1 3.386-.934 19.43 19.43 0 0 1 6.993 0 19.65 19.65 0 0 1 6.55 2.457 19.678 19.678 0 0 1 5.27 4.606 19.717 19.717 0 0 1 3.316 6.168c.364 1.117.625 2.262.782 3.426zm0 0"/></g><path fill="#231f20" d="M431.23 311.492c-.605 0-1.21-.035-1.812-.101-.602-.07-1.2-.176-1.79-.313a15.642 15.642 0 0 1-3.413-1.223 15.69 15.69 0 0 1-4.387-3.199 16.182 16.182 0 0 1-2.207-2.879 15.827 15.827 0 0 1-1.496-3.308 17.08 17.08 0 0 1-.457-1.758c-.117-.598-.2-1.195-.25-1.8a15.715 15.715 0 0 1 .488-5.411 16.129 16.129 0 0 1 1.332-3.375 15.845 15.845 0 0 1 6.285-6.395 15.793 15.793 0 0 1 6.93-1.98c.606-.031 1.211-.027 1.813.012a17.51 17.51 0 0 1 1.804.222 16.148 16.148 0 0 1 3.47 1.055c.558.242 1.097.516 1.624.816a15.62 15.62 0 0 1 1.516 1 15.957 15.957 0 0 1 2.648 2.48 15.87 15.87 0 0 1 2.016 3.02 16.115 16.115 0 0 1 1.277 3.399c.145.586.258 1.183.34 1.785.078.602.121 1.207.133 1.813.008.605-.016 1.21-.074 1.816a15.893 15.893 0 0 1-3.363 8.316c-.376.477-.778.93-1.208 1.356a15.615 15.615 0 0 1-5.144 3.453 15.585 15.585 0 0 1-6.075 1.2zm0-30.535c-8.07 0-14.636 6.574-14.636 14.656 0 8.078 6.566 14.653 14.636 14.653s14.637-6.575 14.637-14.653c0-8.082-6.566-14.656-14.637-14.656zm0 0"/><path fill="#231f20" d="M431.23 305.738c-5.578 0-10.117-4.543-10.117-10.125 0-5.586 4.54-10.129 10.117-10.129 5.579 0 10.118 4.543 10.118 10.13 0 5.581-4.54 10.124-10.118 10.124zm0-19.64c-5.238 0-9.5 4.27-9.5 9.515 0 5.242 4.262 9.512 9.5 9.512 5.239 0 9.504-4.27 9.504-9.512 0-5.246-4.265-9.515-9.504-9.515zm0 17.914c-4.625 0-8.39-3.77-8.39-8.403 0-4.629 3.765-8.398 8.39-8.398s8.391 3.77 8.391 8.402c0 4.63-3.766 8.399-8.39 8.399zm0-16.188c-.511 0-1.015.051-1.515.153a7.78 7.78 0 0 0-6.262 7.633 7.878 7.878 0 0 0 .59 2.98c.195.472.437.922.719 1.347a7.825 7.825 0 0 0 3.492 2.867 7.64 7.64 0 0 0 1.457.442 7.653 7.653 0 0 0 3.035 0 7.592 7.592 0 0 0 1.461-.441 7.926 7.926 0 0 0 1.344-.72 7.757 7.757 0 0 0 2.863-3.496 7.89 7.89 0 0 0 .445-1.46 7.91 7.91 0 0 0 .149-1.516c0-.511-.051-1.02-.153-1.52a7.676 7.676 0 0 0-1.16-2.804 7.595 7.595 0 0 0-.968-1.18 7.752 7.752 0 0 0-3.98-2.132 8.206 8.206 0 0 0-1.517-.153zm0 0"/><g clip-path="url(#U)" transform="translate(-149.52 -51.487)"><path fill="#ff1c1c" d="M456.54 455.133h-45.946a6.587 6.587 0 0 1-6.586-6.586v-74.07a6.587 6.587 0 0 1 6.586-6.586h45.945a6.587 6.587 0 0 1 6.586 6.586v74.07a6.587 6.587 0 0 1-6.586 6.586zm0 0"/></g><g clip-path="url(#V)" transform="translate(-149.52 -51.487)"><path fill="#4d1012" d="M456.54 455.79h-45.946c-3.992 0-7.239-3.25-7.239-7.243v-74.07a7.245 7.245 0 0 1 7.239-7.239h45.945c3.992 0 7.242 3.246 7.242 7.239v74.07c0 3.992-3.25 7.242-7.242 7.242zm-45.946-87.243c-3.27 0-5.93 2.66-5.93 5.93v74.07c0 3.27 2.66 5.93 5.93 5.93h45.945c3.27 0 5.93-2.66 5.93-5.93v-74.07c0-3.27-2.66-5.93-5.93-5.93zm0 0"/></g><path fill="#fff" d="M260.394 344.306c-.77 0-1.391-.621-1.391-1.387v-8.746a1.39 1.39 0 0 1 2.778 0v8.746c0 .766-.621 1.387-1.387 1.387zm0 0"/><path fill="#4d1012" d="M260.394 344.833a1.917 1.917 0 0 1-1.914-1.914v-8.746c0-1.054.859-1.914 1.914-1.914s1.91.86 1.91 1.914v8.746a1.913 1.913 0 0 1-1.91 1.914zm0-11.523a.867.867 0 0 0-.867.863v8.746a.866.866 0 0 0 1.73 0v-8.746a.866.866 0 0 0-.863-.863zm0 0"/><path fill="#fff" d="M260.394 329.454c-.77 0-1.391-.625-1.391-1.39v-2.985c0-.765.621-1.386 1.391-1.386.766 0 1.387.621 1.387 1.386v2.985a1.39 1.39 0 0 1-1.387 1.39zm0 0"/><path fill="#4d1012" d="M260.394 329.978a1.917 1.917 0 0 1-1.914-1.914v-2.985c0-1.054.859-1.914 1.914-1.914s1.91.86 1.91 1.914v2.985a1.913 1.913 0 0 1-1.91 1.914zm0-5.762a.867.867 0 0 0-.867.863v2.985a.866.866 0 0 0 1.73 0v-2.985a.866.866 0 0 0-.863-.863zm0 0"/><g clip-path="url(#W)" transform="translate(155.264 38.151)"><path fill="#fdf101" d="M405.672 135.785h45.945a6.583 6.583 0 0 1 6.586 6.582v74.07a6.587 6.587 0 0 1-6.586 6.586h-45.945a6.587 6.587 0 0 1-6.586-6.585v-74.07a6.583 6.583 0 0 1 6.586-6.583zm0 0"/></g><g clip-path="url(#X)" transform="translate(155.264 38.151)"><path fill="#0d4a76" d="M405.672 135.129h45.945a7.245 7.245 0 0 1 7.238 7.238v74.07c0 3.993-3.246 7.243-7.238 7.243h-45.945c-3.992 0-7.242-3.25-7.242-7.243v-74.07c0-3.992 3.25-7.238 7.242-7.238zm45.945 87.238c3.27 0 5.93-2.66 5.93-5.93v-74.07c0-3.27-2.66-5.93-5.93-5.93h-45.945c-3.27 0-5.93 2.66-5.93 5.93v74.07c0 3.27 2.66 5.93 5.93 5.93zm0 0"/></g><path fill="#fff" d="M607.561 233.273c.769 0 1.39.621 1.39 1.39v8.747c0 .765-.621 1.386-1.39 1.386a1.387 1.387 0 0 1-1.387-1.386v-8.747c0-.769.621-1.39 1.387-1.39zm0 0"/><path fill="#0d4a76" d="M607.561 232.749c1.054 0 1.914.86 1.914 1.914v8.747c0 1.054-.86 1.91-1.914 1.91a1.91 1.91 0 0 1-1.91-1.91v-8.747c0-1.054.855-1.914 1.91-1.914zm0 11.524a.867.867 0 0 0 .867-.863v-8.747a.87.87 0 0 0-.867-.867.87.87 0 0 0-.864.867v8.747c0 .476.391.863.864.863zm0 0"/><path fill="#fff" d="M607.561 248.128c.769 0 1.39.621 1.39 1.387v2.984a1.389 1.389 0 1 1-2.777 0v-2.984c0-.766.621-1.387 1.387-1.387zm0 0"/><path fill="#0d4a76" d="M607.561 247.605c1.054 0 1.914.855 1.914 1.91v2.984c0 1.055-.86 1.914-1.914 1.914a1.913 1.913 0 0 1-1.91-1.914v-2.984a1.91 1.91 0 0 1 1.91-1.91zm0 5.762a.87.87 0 0 0 .867-.868v-2.984a.867.867 0 0 0-1.731 0v2.984a.87.87 0 0 0 .864.868zm0 0"/></svg>